<?xml version="1.0" standalone="no"?>
<!DOCTYPE svg PUBLIC "-//W3C//DTD SVG 20010904//EN"
 "http://www.w3.org/TR/2001/REC-SVG-20010904/DTD/svg10.dtd">
<svg version="1.0" xmlns="http://www.w3.org/2000/svg"
 width="697.000000pt" height="358.000000pt" viewBox="0 0 697.000000 358.000000"
 preserveAspectRatio="xMidYMid meet">

<g transform="translate(0.000000,358.000000) scale(0.100000,-0.100000)"
fill="#66b5a3" stroke="none">
<path d="M5468 3562 c-121 -43 -170 -174 -103 -275 9 -15 20 -27 24 -27 3 0
12 -4 20 -9 11 -7 6 -16 -22 -41 -20 -17 -46 -54 -59 -83 -21 -48 -42 -89
-143 -286 -33 -64 -37 -77 -29 -110 8 -33 12 -36 50 -39 48 -4 83 20 125 86
l28 44 3 -232 c3 -230 3 -232 27 -251 28 -23 85 -24 121 -4 14 8 27 14 30 15
3 0 6 -23 7 -51 2 -66 27 -103 73 -107 19 -2 43 2 55 8 48 25 50 38 55 334 l5
279 45 -66 c69 -102 97 -108 153 -30 15 21 34 47 42 58 13 18 15 -5 14 -196
-1 -119 2 -222 6 -229 11 -18 54 -31 80 -24 16 4 28 17 35 40 14 42 26 43 35
5 14 -64 71 -79 109 -28 19 26 21 44 24 218 2 104 7 189 12 189 4 0 17 -16 28
-35 24 -39 61 -53 98 -36 46 21 46 16 -11 -83 -25 -44 -45 -81 -45 -83 0 -2
32 -3 70 -3 l70 0 1 -82 c0 -109 15 -152 52 -156 39 -5 63 20 78 80 11 49 12
50 28 31 25 -32 57 -37 80 -14 19 19 27 49 33 116 l3 30 77 3 76 3 -52 77
c-57 84 -81 132 -66 132 5 0 14 -9 20 -19 5 -11 24 -29 41 -41 29 -21 31 -21
50 -5 10 10 19 27 19 38 0 30 -47 106 -98 159 l-46 48 18 55 c19 61 12 85 -24
85 -12 0 -24 15 -36 45 -22 59 -62 88 -128 92 -64 5 -107 -19 -131 -74 -9 -21
-30 -46 -46 -55 -34 -20 -38 -51 -9 -88 24 -31 25 -51 3 -78 -10 -11 -26 -30
-36 -42 -10 -11 -22 -18 -28 -15 -5 4 -27 42 -49 84 -35 70 -76 119 -112 134
-10 4 -8 9 5 17 50 32 76 91 63 144 -10 39 -54 85 -94 96 -52 14 -117 12 -157
-4 -87 -37 -103 -181 -25 -221 26 -13 29 -19 19 -31 -6 -8 -16 -14 -22 -14
-17 0 -52 -44 -91 -114 -20 -36 -41 -66 -46 -66 -13 0 -74 128 -105 220 -20
61 -37 94 -61 118 -38 36 -41 47 -19 56 29 11 55 69 55 123 0 95 -37 149 -127
183 -64 24 -83 24 -145 2z m1087 -593 c0 -8 -12 -15 -27 -17 -22 -3 -28 1 -28
16 0 10 3 21 6 25 10 10 49 -9 49 -24z m191 -4 c-8 -21 -50 -16 -54 7 -2 11 5
18 20 20 29 5 43 -6 34 -27z"/>
<path d="M1285 3439 c-174 -17 -259 -39 -435 -112 -292 -122 -562 -393 -697
-700 -81 -186 -117 -319 -139 -525 -15 -141 -15 -163 0 -300 9 -81 24 -174 32
-207 9 -33 20 -78 26 -100 5 -22 31 -86 58 -143 172 -361 483 -591 904 -669
125 -23 384 -23 486 0 177 39 345 107 665 271 284 145 380 186 550 237 107 33
114 34 290 33 168 0 186 -2 270 -28 194 -59 308 -139 436 -307 113 -149 180
-192 309 -197 107 -5 177 19 250 85 88 79 95 101 150 448 18 110 43 265 57
345 43 255 76 480 71 485 -2 2 -62 5 -133 6 l-130 1 -7 -53 c-5 -30 -12 -81
-18 -114 -19 -112 -100 -619 -116 -730 -26 -174 -30 -184 -69 -201 -19 -8 -56
-14 -82 -14 -44 0 -50 3 -93 52 -142 162 -238 243 -380 315 -189 97 -390 143
-619 143 -251 0 -461 -56 -809 -216 -29 -13 -55 -24 -57 -24 -2 0 -28 -11 -57
-24 -106 -48 -305 -115 -408 -136 -519 -108 -949 102 -1116 547 -40 107 -54
197 -54 353 0 171 16 267 66 410 107 306 306 527 577 640 107 45 284 80 405
80 241 0 496 -99 678 -264 29 -25 54 -46 56 -46 3 0 10 44 17 98 7 53 19 135
27 181 8 46 14 102 14 125 0 40 -2 42 -68 82 -166 101 -348 154 -597 174 -136
11 -183 11 -310 -1z"/>
<path d="M3369 3211 c-19 -16 -20 -20 -8 -21 17 0 45 27 37 35 -3 3 -16 -3
-29 -14z"/>
<path d="M2528 3141 c-82 -65 -48 -201 43 -175 44 13 52 36 10 28 -41 -9 -61
10 -61 56 0 55 39 94 86 87 25 -4 34 -2 31 6 -7 22 -80 20 -109 -2z"/>
<path d="M2887 3083 c-8 -43 -19 -86 -22 -95 -6 -16 0 -18 49 -18 31 0 56 5
56 10 0 6 -13 10 -28 10 -16 0 -31 2 -34 5 -3 3 1 36 8 73 17 85 17 92 0 92
-8 0 -19 -27 -29 -77z"/>
<path d="M3330 3148 c-1 -7 -7 -49 -15 -93 -8 -43 -12 -81 -10 -83 15 -15 32
16 43 79 8 41 16 82 18 92 4 12 0 17 -15 17 -12 0 -21 -6 -21 -12z"/>
<path d="M3785 3148 c-4 -14 -35 -163 -35 -173 0 -3 6 -5 14 -5 15 0 21 17 31
93 4 26 11 47 15 47 4 0 18 -31 30 -70 19 -60 26 -70 46 -70 20 0 24 7 34 58
6 31 15 74 19 95 8 32 7 37 -9 37 -14 0 -19 -11 -24 -53 -6 -48 -21 -88 -28
-77 -2 3 -12 32 -23 65 -16 47 -25 61 -43 63 -12 2 -24 -3 -27 -10z"/>
<path d="M4277 3076 c-20 -101 -21 -106 -4 -106 9 0 20 26 30 69 20 83 22 121
4 121 -8 0 -19 -32 -30 -84z"/>
<path d="M4676 3130 c-47 -56 -48 -120 -4 -153 22 -16 33 -18 59 -11 44 13 52
36 10 28 -19 -4 -37 -2 -46 6 -21 18 -19 69 6 109 19 31 23 33 60 28 28 -4 39
-2 36 6 -2 7 -24 13 -49 15 -40 3 -48 0 -72 -28z"/>
<path d="M5097 3138 c-21 -35 -87 -158 -87 -163 0 -14 31 -2 40 15 8 15 21 20
55 20 38 0 45 -3 45 -20 0 -14 7 -20 21 -20 14 0 19 5 16 14 -3 8 -11 51 -18
95 -11 74 -14 81 -35 81 -14 0 -29 -10 -37 -22z m42 -75 c1 -19 -4 -23 -29
-23 -36 0 -36 1 -7 50 20 37 22 38 29 17 3 -12 6 -32 7 -44z"/>
<path d="M2942 2785 c-3 -5 -12 -50 -18 -100 -11 -80 -61 -420 -67 -453 -1 -7
-23 7 -51 34 -62 58 -122 84 -211 91 -182 14 -332 -78 -419 -257 l-41 -85 0
-150 c0 -169 9 -203 73 -286 71 -90 166 -127 291 -115 75 8 174 52 217 97 39
41 47 37 39 -21 l-7 -50 139 6 c76 4 139 7 140 8 2 1 36 218 53 331 5 39 19
126 31 195 27 163 34 209 58 365 30 193 49 315 57 363 l7 42 -143 -2 c-80 -2
-145 -7 -148 -13z m-202 -678 c66 -35 93 -92 87 -179 -3 -37 -14 -83 -26 -105
-37 -71 -136 -130 -201 -119 -110 17 -162 75 -168 185 -3 59 0 73 30 130 27
53 41 69 78 87 61 32 142 32 200 1z"/>
<path d="M4404 2426 c-67 -30 -96 -137 -55 -200 31 -46 70 -66 130 -66 50 0
57 3 92 40 62 65 62 145 -1 205 -35 34 -115 44 -166 21z"/>
<path d="M1403 2345 c-128 -36 -223 -116 -284 -240 -38 -76 -42 -93 -47 -179
-12 -229 69 -374 244 -438 88 -32 292 -32 385 0 69 24 182 89 177 102 -2 4
-36 42 -76 85 l-72 77 -35 -26 c-82 -63 -192 -84 -269 -52 -45 19 -76 72 -76
130 l0 46 320 0 320 0 6 26 c10 38 -3 161 -23 219 -34 99 -120 191 -223 237
-61 27 -269 35 -347 13z m273 -228 c32 -33 44 -54 44 -76 l0 -31 -175 0 c-124
0 -175 3 -175 11 0 34 81 122 130 142 8 4 41 5 74 4 55 -3 61 -6 102 -50z"/>
<path d="M3602 2345 c-29 -8 -74 -27 -99 -42 -56 -33 -148 -124 -168 -167 -50
-110 -58 -141 -59 -246 -2 -217 79 -346 254 -406 67 -23 278 -26 350 -5 86 24
200 91 200 115 0 7 -33 45 -74 85 l-74 74 -42 -33 c-54 -43 -101 -59 -172 -60
-104 0 -154 41 -160 135 l-3 50 320 5 320 5 3 65 c4 82 -21 192 -56 250 -37
63 -107 124 -178 157 -51 23 -73 27 -184 30 -89 2 -140 -1 -178 -12z m231
-189 c48 -19 87 -70 87 -112 l0 -34 -170 0 c-194 0 -196 1 -141 77 52 71 148
101 224 69z m-293 -376 c0 -5 -2 -10 -4 -10 -3 0 -8 5 -11 10 -3 6 -1 10 4 10
6 0 11 -4 11 -10z"/>
<path d="M5030 2084 c-142 -28 -272 -135 -321 -263 -31 -81 -37 -221 -13 -297
51 -164 188 -254 384 -254 216 0 388 118 445 306 21 70 20 212 -3 272 -40 106
-117 183 -214 218 -43 15 -230 27 -278 18z m177 -226 c65 -32 90 -94 77 -191
-8 -58 -56 -133 -104 -161 -45 -27 -141 -27 -178 0 -93 69 -83 240 20 328 59
51 116 58 185 24z"/>
<path d="M6165 2081 c-49 -12 -77 -30 -134 -85 l-53 -51 7 58 7 58 -118 -3
-117 -3 -18 -110 c-59 -362 -88 -546 -94 -592 l-7 -53 120 0 c67 0 123 3 125
8 3 4 15 77 27 162 21 153 50 287 71 334 29 64 127 91 181 51 45 -33 50 -63
28 -189 -27 -160 -50 -316 -50 -343 0 -23 1 -23 119 -23 66 0 122 4 125 9 3 4
12 62 20 127 45 354 82 439 194 439 37 0 48 -5 74 -34 29 -33 30 -36 26 -115
-3 -44 -14 -135 -26 -201 -11 -66 -28 -171 -38 -232 l-17 -113 -1048 0 c-576
0 -1050 -4 -1053 -8 -2 -4 -10 -55 -16 -112 -14 -131 -31 -200 -61 -242 l-23
-33 35 27 c91 68 240 141 361 177 177 52 271 64 518 63 214 -1 382 -17 705
-67 309 -48 500 -58 600 -31 156 41 210 110 244 312 43 252 61 372 67 457 4
48 11 87 17 87 5 0 7 15 4 33 -29 183 -85 239 -242 241 -95 1 -125 -12 -203
-88 -50 -47 -55 -50 -65 -32 -26 43 -74 90 -103 102 -40 17 -150 26 -189 15z"/>
<path d="M5966 595 c-13 -20 -14 -25 -3 -25 14 0 47 31 47 43 0 17 -29 5 -44
-18z"/>
<path d="M2440 595 c-72 -24 -110 -143 -58 -179 26 -18 71 -21 99 -5 24 12 16
29 -11 22 -11 -3 -31 -2 -45 1 -21 5 -25 12 -25 45 0 24 8 48 21 65 18 23 28
27 62 24 48 -3 61 15 20 29 -19 7 -39 6 -63 -2z"/>
<path d="M3526 594 c-3 -9 -6 -24 -6 -34 0 -15 -6 -17 -38 -13 -44 6 -70 -16
-81 -69 -13 -61 23 -97 69 -68 9 5 19 5 27 -1 18 -15 29 -4 37 33 3 18 12 63
19 101 13 62 13 67 -3 67 -10 0 -21 -7 -24 -16z m-20 -88 c9 -23 -24 -76 -47
-76 -26 0 -34 24 -19 60 9 22 19 30 37 30 13 0 26 -6 29 -14z"/>
<path d="M3893 595 c-17 -7 -37 -23 -43 -36 -11 -20 -8 -26 31 -62 l43 -40
-22 -18 c-17 -13 -29 -15 -51 -9 -34 9 -46 3 -30 -17 20 -23 87 -16 114 12 34
33 31 49 -10 81 -54 41 -41 83 22 68 19 -5 24 -3 21 6 -7 22 -42 29 -75 15z"/>
<path d="M4495 600 c-3 -5 -4 -14 0 -20 8 -13 35 -1 35 16 0 16 -26 19 -35 4z"/>
<path d="M5211 577 c-10 -30 -14 -33 -44 -29 -28 3 -38 -2 -60 -28 -29 -34
-36 -87 -15 -108 16 -16 50 -15 67 1 11 10 14 10 18 0 12 -32 32 -10 43 45 6
31 15 73 20 93 13 49 13 59 -4 59 -8 0 -19 -15 -25 -33z m-21 -84 c0 -31 -26
-63 -52 -63 -13 0 -18 7 -18 26 0 39 18 64 45 64 20 0 25 -5 25 -27z"/>
<path d="M6181 577 c-10 -30 -15 -33 -42 -29 -56 8 -108 -74 -80 -127 13 -23
50 -28 70 -8 11 10 14 10 18 0 10 -27 31 -11 41 30 13 49 32 144 32 157 0 24
-30 7 -39 -23z m-21 -84 c0 -31 -26 -63 -52 -63 -13 0 -18 7 -18 26 0 39 18
64 45 64 20 0 25 -5 25 -27z"/>
<path d="M5563 585 c-34 -24 -29 -59 12 -91 20 -15 34 -32 32 -38 -7 -20 -49
-35 -69 -25 -27 14 -46 -1 -23 -18 26 -19 79 -16 105 5 28 22 30 72 5 87 -10
5 -27 19 -38 29 -20 19 -20 19 -1 33 12 8 30 11 47 7 22 -5 28 -3 25 7 -7 20
-69 22 -95 4z"/>
<path d="M2923 573 c-4 -10 -13 -22 -20 -26 -8 -5 -10 -13 -6 -20 5 -7 8 -37
8 -67 0 -53 1 -55 28 -58 19 -2 27 1 27 12 0 9 -7 16 -15 16 -18 0 -18 4 -4
53 7 26 15 37 29 37 11 0 20 7 20 15 0 8 -7 15 -15 15 -8 0 -15 9 -15 20 0 25
-28 27 -37 3z"/>
<path d="M2577 539 c-21 -12 -47 -61 -47 -87 0 -31 34 -54 76 -50 50 4 57 26
7 24 -32 -1 -38 2 -41 22 -3 19 1 22 32 22 47 0 81 31 66 60 -12 22 -62 27
-93 9z m61 -26 c-4 -23 -58 -31 -58 -9 0 15 14 24 43 25 12 1 17 -5 15 -16z"/>
<path d="M2718 475 c-14 -71 -14 -75 3 -75 13 0 19 11 24 43 8 48 29 77 58 77
17 0 19 -5 14 -37 -3 -21 -9 -49 -13 -62 -6 -19 -4 -22 11 -19 22 4 37 54 33
106 -2 30 -7 38 -26 40 -13 2 -30 -2 -39 -10 -13 -10 -17 -10 -20 0 -3 6 -10
12 -17 12 -8 0 -19 -29 -28 -75z"/>
<path d="M3030 546 c0 -9 -21 -113 -26 -128 -4 -13 0 -18 15 -18 14 0 21 6 21
20 0 38 28 90 55 100 14 5 25 14 25 20 0 14 -33 13 -48 -2 -9 -9 -12 -9 -12 0
0 7 -7 12 -15 12 -8 0 -15 -2 -15 -4z"/>
<path d="M3165 528 c-33 -29 -44 -88 -20 -111 21 -22 74 -21 103 1 31 24 45
84 25 111 -20 29 -74 28 -108 -1z m75 -13 c28 -33 -15 -104 -54 -89 -25 10
-21 70 6 88 28 20 32 20 48 1z"/>
<path d="M3612 527 c-31 -33 -39 -88 -17 -110 17 -17 60 -22 89 -11 28 11 17
21 -21 20 -32 -1 -38 2 -41 22 -3 19 1 22 31 22 20 0 45 8 58 19 34 28 16 55
-37 59 -31 2 -44 -2 -62 -21z m73 -17 c0 -9 -11 -16 -27 -18 -20 -2 -28 1 -28
12 0 8 6 17 13 19 21 9 42 2 42 -13z"/>
<path d="M4025 525 c-27 -27 -35 -91 -13 -113 17 -17 83 -15 98 3 11 13 8 14
-19 9 -33 -7 -61 8 -61 32 0 9 11 14 30 14 40 0 80 20 80 40 0 45 -75 56 -115
15z m78 -1 c3 -3 3 -12 0 -20 -5 -15 -63 -20 -63 -6 0 23 47 42 63 26z"/>
<path d="M4186 538 c-7 -23 -26 -119 -26 -129 0 -5 6 -9 14 -9 9 0 22 23 33
58 14 44 23 58 40 60 27 4 40 32 15 32 -10 0 -23 -5 -30 -12 -9 -9 -12 -9 -12
0 0 16 -30 15 -34 0z"/>
<path d="M4301 508 c3 -95 26 -129 65 -97 14 11 74 120 74 134 0 3 -9 5 -20 5
-11 0 -20 -5 -20 -11 0 -18 -43 -99 -52 -99 -4 0 -8 11 -8 24 0 45 -13 86 -26
86 -10 0 -14 -13 -13 -42z"/>
<path d="M4468 475 c-12 -66 -12 -75 0 -73 14 3 31 47 45 116 5 27 3 32 -12
32 -15 0 -21 -14 -33 -75z"/>
<path d="M4566 519 c-33 -38 -36 -93 -6 -109 27 -14 25 -36 -2 -45 l-23 -8 23
-4 c33 -6 52 3 52 26 0 10 7 21 15 25 21 8 19 28 -2 25 -37 -3 -43 1 -43 34 0
41 27 69 58 60 16 -4 22 -1 22 11 0 12 -9 16 -34 16 -26 0 -41 -7 -60 -31z"/>
<path d="M4705 519 c-35 -43 -32 -99 6 -113 59 -20 119 22 119 84 0 46 -15 60
-61 60 -29 0 -43 -7 -64 -31z m84 -8 c14 -26 -5 -78 -31 -87 -46 -14 -62 51
-22 90 21 21 41 20 53 -3z"/>
<path d="M4892 538 c-20 -20 -14 -54 14 -72 32 -22 26 -41 -14 -41 -37 0 -48
-18 -13 -23 35 -5 69 6 81 27 13 26 5 46 -26 60 -31 14 -26 36 7 37 13 0 26 4
29 10 8 14 -63 17 -78 2z"/>
<path d="M5296 525 c-53 -57 -35 -125 33 -125 21 0 44 6 50 13 9 11 3 14 -32
13 -36 -1 -42 2 -45 22 -3 19 1 22 31 22 47 0 86 32 71 57 -7 11 -26 19 -47
21 -29 3 -42 -2 -61 -23z m79 -15 c0 -10 -12 -16 -32 -18 -35 -3 -41 6 -21 26
17 17 53 11 53 -8z"/>
<path d="M5719 537 c-36 -28 -52 -100 -27 -125 17 -17 48 -15 70 5 17 15 18
15 18 0 0 -10 6 -17 14 -17 8 0 18 22 25 61 7 34 15 67 17 73 6 17 -95 19
-117 3z m71 -44 c0 -31 -26 -63 -52 -63 -14 0 -18 8 -18 33 0 39 15 57 47 57
18 0 23 -6 23 -27z"/>
<path d="M5881 506 c-18 -71 -15 -95 13 -102 13 -3 34 0 46 6 18 10 24 9 31
-1 12 -19 25 2 39 64 13 63 13 77 -4 77 -8 0 -18 -19 -25 -44 -12 -48 -33 -76
-58 -76 -13 0 -15 9 -9 60 6 49 4 60 -7 60 -9 0 -19 -18 -26 -44z"/>
<path d="M6266 519 c-28 -33 -35 -86 -14 -107 17 -17 83 -15 98 3 12 14 8 15
-27 9 -32 -5 -41 -3 -47 11 -9 25 1 35 35 35 43 0 69 17 69 44 0 47 -76 51
-114 5z m79 -9 c0 -10 -12 -16 -32 -18 -35 -3 -41 6 -21 26 17 17 53 11 53 -8z"/>
<path d="M6509 521 c-65 -66 -11 -148 75 -115 28 11 17 21 -21 20 -32 -1 -38
2 -41 22 -3 19 1 22 31 22 19 0 45 8 57 18 19 16 21 22 11 40 -18 34 -75 30
-112 -7z m76 -11 c0 -10 -12 -16 -35 -18 l-35 -4 20 22 c21 23 50 23 50 0z"/>
<path d="M3174 263 c-3 -16 -7 -32 -8 -38 -1 -5 -21 -8 -44 -7 -38 3 -43 0
-62 -30 -24 -40 -26 -81 -4 -102 18 -19 28 -20 55 -5 15 7 24 7 35 -1 11 -10
15 -9 18 1 10 28 46 182 46 195 0 26 -30 14 -36 -13z m-40 -69 c34 -13 5 -94
-33 -94 -35 0 -36 44 -3 83 17 20 15 19 36 11z"/>
<path d="M3925 270 c-16 -17 -16 -20 -2 -20 9 0 19 5 23 11 4 8 9 8 17 0 16
-16 57 -13 64 4 7 21 -6 33 -17 15 -7 -11 -13 -12 -35 -2 -32 15 -29 16 -50
-8z"/>
<path d="M4665 274 c-9 -9 -13 -19 -10 -22 3 -3 10 -1 16 5 8 8 19 7 41 -1 26
-9 32 -8 44 8 7 11 11 22 8 25 -4 3 -9 0 -11 -6 -6 -15 -39 -17 -48 -3 -9 14
-21 12 -40 -6z"/>
<path d="M5800 265 c0 -8 9 -15 20 -15 11 0 20 7 20 15 0 8 -9 15 -20 15 -11
0 -20 -7 -20 -15z"/>
<path d="M2910 213 c-6 -32 -16 -74 -20 -93 -6 -19 -6 -36 -1 -40 14 -8 111 1
111 11 0 5 -18 9 -40 9 -43 0 -46 4 -30 44 8 21 16 26 45 26 19 0 35 5 35 10
0 6 -16 10 -35 10 -37 0 -42 9 -25 41 8 14 21 19 50 19 22 0 40 5 40 10 0 6
-26 10 -59 10 l-60 0 -11 -57z"/>
<path d="M4366 254 c-3 -9 -6 -23 -6 -33 0 -10 -7 -41 -15 -69 -12 -41 -20
-52 -36 -52 -23 0 -21 -23 3 -28 32 -6 57 32 77 116 18 78 18 82 1 82 -10 0
-21 -7 -24 -16z"/>
<path d="M5085 258 c-4 -14 -35 -164 -35 -173 0 -3 6 -5 14 -5 10 0 20 24 31
75 10 41 21 77 25 80 4 3 11 -26 15 -63 13 -124 34 -128 94 -17 23 41 46 77
51 80 11 7 11 4 -10 -92 -13 -58 -7 -81 16 -62 8 6 14 22 14 35 0 12 4 33 9
46 4 13 11 42 15 66 6 42 6 42 -24 42 -27 0 -36 -8 -71 -65 -23 -36 -45 -65
-49 -65 -4 0 -13 29 -20 65 -12 62 -13 65 -41 65 -16 0 -32 -6 -34 -12z"/>
<path d="M5690 250 c0 -5 -9 -18 -21 -28 -16 -16 -17 -21 -6 -25 12 -4 13 -15
6 -53 -10 -53 1 -77 34 -72 25 4 35 28 12 28 -15 0 -17 6 -11 42 9 54 11 57
49 55 34 -2 33 1 21 -78 -7 -40 9 -61 24 -32 6 10 13 44 17 76 l7 57 -51 0
c-44 0 -51 3 -51 20 0 11 -7 20 -15 20 -8 0 -15 -4 -15 -10z"/>
<path d="M3246 205 c-3 -8 -8 -37 -12 -64 -5 -42 -4 -50 13 -60 23 -12 63 -4
63 13 0 6 4 5 9 -3 17 -26 35 -4 48 59 7 35 11 66 8 68 -11 11 -35 -10 -35
-30 0 -35 -37 -90 -58 -86 -18 4 -20 20 -8 81 5 29 4 37 -7 37 -8 0 -17 -7
-21 -15z"/>
<path d="M3435 195 c-18 -18 -25 -35 -25 -65 0 -34 4 -42 26 -50 30 -12 74 -3
74 14 0 8 -11 11 -30 8 -29 -4 -30 -3 -30 31 0 53 39 84 68 55 9 -9 12 -7 12
10 0 33 -62 31 -95 -3z"/>
<path d="M3584 212 c-16 -10 -44 -68 -44 -90 0 -31 33 -54 66 -45 16 4 37 6
46 4 17 -2 25 19 43 105 l6 30 -53 2 c-29 1 -58 -2 -64 -6z m66 -27 c16 -20
-17 -79 -48 -83 -19 -3 -22 1 -22 32 0 25 6 39 22 50 28 20 32 20 48 1z"/>
<path d="M3755 195 c-32 -31 -34 -92 -5 -118 22 -18 19 -37 -6 -37 -8 0 -14
-5 -14 -11 0 -6 12 -9 28 -7 20 2 28 9 30 27 2 13 12 26 23 28 31 8 22 28 -13
28 -31 0 -33 2 -31 35 2 40 28 63 61 55 15 -4 22 -1 22 10 0 26 -67 19 -95
-10z"/>
<path d="M3896 197 c-47 -73 -18 -150 44 -117 16 9 25 8 36 0 15 -13 13 -17
33 56 20 75 18 79 -44 81 -47 2 -57 0 -69 -20z m68 -3 c37 -14 3 -98 -37 -92
-17 2 -22 9 -20 32 1 16 10 37 19 47 19 22 17 21 38 13z"/>
<path d="M4075 195 c-33 -32 -35 -99 -4 -116 27 -14 81 -4 103 19 22 25 30 75
17 101 -17 31 -84 29 -116 -4z m84 -13 c6 -12 5 -28 -5 -50 -11 -28 -18 -33
-41 -30 -25 3 -28 7 -26 36 2 51 52 81 72 44z"/>
<path d="M4463 205 c-29 -21 -48 -78 -33 -104 26 -49 105 -36 134 23 28 57 14
90 -39 94 -24 2 -49 -3 -62 -13z m75 -37 c5 -42 -15 -70 -46 -66 -33 4 -41 38
-17 74 22 34 59 29 63 -8z"/>
<path d="M4632 197 c-59 -63 -24 -157 43 -113 21 14 24 14 29 -1 10 -26 27 -1
37 54 5 26 12 55 14 64 4 13 -5 16 -48 17 -44 1 -58 -3 -75 -21z m76 -30 c4
-33 -22 -67 -50 -67 -13 0 -18 7 -18 28 0 63 61 97 68 39z"/>
<path d="M4815 195 c-33 -32 -35 -99 -4 -116 27 -14 82 -4 103 20 23 25 32 87
16 106 -20 25 -87 19 -115 -10z m84 -13 c6 -12 5 -28 -5 -50 -11 -28 -18 -33
-41 -30 -25 3 -28 7 -26 38 2 51 51 80 72 42z"/>
<path d="M5387 207 c-19 -14 -37 -59 -37 -93 0 -32 38 -51 69 -34 17 9 26 9
36 0 18 -15 31 14 41 87 l6 49 -49 2 c-27 1 -57 -4 -66 -11z m57 -13 c35 -13
5 -94 -35 -94 -15 0 -19 7 -19 34 0 19 7 42 16 50 18 18 17 18 38 10z"/>
<path d="M5555 193 c-4 -16 -10 -47 -16 -70 -12 -55 -12 -55 11 -43 11 6 20
19 20 30 0 33 23 70 47 76 13 4 23 12 23 20 0 16 -26 19 -35 4 -3 -5 -11 -10
-16 -10 -6 0 -7 5 -4 10 3 6 -1 10 -9 10 -9 0 -18 -12 -21 -27z"/>
<path d="M5881 202 c-13 -25 -18 -116 -6 -120 6 -2 16 16 23 41 13 48 44 83
62 72 8 -5 10 -26 5 -66 -6 -48 -4 -58 7 -54 20 8 41 114 27 132 -14 16 -43
17 -70 3 -13 -7 -19 -7 -19 0 0 16 -18 12 -29 -8z"/>
<path d="M6062 208 c-21 -21 -14 -54 13 -66 44 -20 24 -58 -24 -45 -12 3 -21
1 -21 -6 0 -16 42 -23 73 -12 38 14 38 63 1 80 -33 15 -26 35 14 39 18 2 32 7
32 13 0 13 -74 11 -88 -3z"/>
</g>
</svg>
